<svg width="203" height="40" viewBox="0 0 203 40" fill="none" xmlns="http://www.w3.org/2000/svg">
<path d="M30.3579 21.3765C30.3579 25.0685 29.7368 28.2948 28.4946 31.0552C27.2524 33.7983 25.4927 35.8945 23.2153 37.3438C20.938 38.793 18.2811 39.5176 15.2446 39.5176C12.2772 39.5176 9.64616 38.793 7.35156 37.3438C5.05697 35.8773 3.27132 33.7983 1.99463 31.1069C0.735189 28.3983 0.0882161 25.2669 0.0537109 21.7129V18.9956C0.0537109 15.3726 0.683431 12.1722 1.94287 9.39453C3.20231 6.61686 4.97933 4.49479 7.27393 3.02832C9.58577 1.5446 12.2254 0.802734 15.1929 0.802734C18.2121 0.802734 20.869 1.53597 23.1636 3.00244C25.4754 4.45166 27.2524 6.5651 28.4946 9.34277C29.7368 12.1032 30.3579 15.3208 30.3579 18.9956V21.3765ZM25.415 18.9438C25.415 14.4754 24.5179 11.0508 22.7236 8.66992C20.9294 6.27181 18.4191 5.07275 15.1929 5.07275C12.0529 5.07275 9.57715 6.27181 7.76562 8.66992C5.97135 11.0508 5.04834 14.3633 4.99658 18.6074V21.3765C4.99658 25.7069 5.90234 29.1143 7.71387 31.5986C9.54264 34.0658 12.0529 35.2993 15.2446 35.2993C18.4536 35.2993 20.938 34.1348 22.6978 31.8057C24.4575 29.4593 25.3633 26.1037 25.415 21.7388V18.9438ZM66.7695 39H61.7749L42.8057 9.96387V39H37.811V1.32031H42.8057L61.8267 30.4858V1.32031H66.7695V39ZM80.5889 34.937H98.4453V39H75.5942V1.32031H80.5889V34.937ZM131.389 21.3765C131.389 25.0685 130.768 28.2948 129.526 31.0552C128.284 33.7983 126.524 35.8945 124.247 37.3438C121.969 38.793 119.312 39.5176 116.276 39.5176C113.308 39.5176 110.677 38.793 108.383 37.3438C106.088 35.8773 104.303 33.7983 103.026 31.1069C101.766 28.3983 101.119 25.2669 101.085 21.7129V18.9956C101.085 15.3726 101.715 12.1722 102.974 9.39453C104.234 6.61686 106.011 4.49479 108.305 3.02832C110.617 1.5446 113.257 0.802734 116.224 0.802734C119.243 0.802734 121.9 1.53597 124.195 3.00244C126.507 4.45166 128.284 6.5651 129.526 9.34277C130.768 12.1032 131.389 15.3208 131.389 18.9956V21.3765ZM126.446 18.9438C126.446 14.4754 125.549 11.0508 123.755 8.66992C121.961 6.27181 119.45 5.07275 116.224 5.07275C113.084 5.07275 110.608 6.27181 108.797 8.66992C107.003 11.0508 106.08 14.3633 106.028 18.6074V21.3765C106.028 25.7069 106.934 29.1143 108.745 31.5986C110.574 34.0658 113.084 35.2993 116.276 35.2993C119.485 35.2993 121.969 34.1348 123.729 31.8057C125.489 29.4593 126.395 26.1037 126.446 21.7388V18.9438ZM166.559 27.0439C166.093 31.0293 164.618 34.1089 162.133 36.2827C159.666 38.4393 156.38 39.5176 152.273 39.5176C147.822 39.5176 144.251 37.9217 141.56 34.73C138.885 31.5382 137.548 27.2682 137.548 21.9199V18.2969C137.548 14.7946 138.169 11.715 139.412 9.05811C140.671 6.4012 142.448 4.3654 144.743 2.95068C147.037 1.51872 149.694 0.802734 152.713 0.802734C156.716 0.802734 159.925 1.92415 162.34 4.16699C164.756 6.39258 166.162 9.48079 166.559 13.4316H161.564C161.133 10.4297 160.192 8.25586 158.743 6.91016C157.311 5.56445 155.301 4.8916 152.713 4.8916C149.539 4.8916 147.046 6.06478 145.234 8.41113C143.44 10.7575 142.543 14.0959 142.543 18.4263V22.0752C142.543 26.1641 143.397 29.4162 145.105 31.8315C146.813 34.2469 149.202 35.4546 152.273 35.4546C155.034 35.4546 157.147 34.8335 158.614 33.5913C160.097 32.3319 161.081 30.1494 161.564 27.0439H166.559ZM182.94 21.48L178.333 26.2676V39H173.365V1.32031H178.333V19.9531L195.077 1.32031H201.081L186.252 17.9604L202.246 39H196.293L182.94 21.48Z" fill="#5AC8F7"/>
</svg>
